<?xml version="1.0" encoding="UTF-8" standalone="no"?>
<!DOCTYPE svg PUBLIC "-//W3C//DTD SVG 1.1//EN"
 "http://www.w3.org/Graphics/SVG/1.1/DTD/svg11.dtd">
<!-- Generated by graphviz version 5.0.0 (20220707.1540)
 -->
<!-- Title: dependencies Pages: 1 -->
<svg width="546pt" height="247pt"
 viewBox="0.00 0.00 546.00 246.80" xmlns="http://www.w3.org/2000/svg" xmlns:xlink="http://www.w3.org/1999/xlink">
<g id="graph0" class="graph" transform="scale(1 1) rotate(0) translate(4 242.8)">
<title>dependencies</title>
<polygon fill="white" stroke="transparent" points="-4,4 -4,-242.8 542,-242.8 542,4 -4,4"/>
<text text-anchor="middle" x="269" y="-8.2" font-family="sans-serif" font-size="14.00">dependencies</text>
<g id="clust1" class="cluster">
<title>cluster_NacionalSolutionsModule</title>
<polygon fill="none" stroke="black" stroke-dasharray="1,5" points="8,-32.8 8,-230.8 530,-230.8 530,-32.8 8,-32.8"/>
</g>
<g id="clust2" class="cluster">
<title>cluster_NacionalSolutionsModule_declarations</title>
<polygon fill="none" stroke="black" points="322,-40.8 322,-92.8 522,-92.8 522,-40.8 322,-40.8"/>
</g>
<g id="clust5" class="cluster">
<title>cluster_NacionalSolutionsModule_exports</title>
<polygon fill="none" stroke="black" points="155,-170.8 155,-222.8 359,-222.8 359,-170.8 155,-170.8"/>
</g>
<g id="clust4" class="cluster">
<title>cluster_NacionalSolutionsModule_imports</title>
<polygon fill="none" stroke="black" points="16,-40.8 16,-92.8 314,-92.8 314,-40.8 16,-40.8"/>
</g>
<!-- NacionalSolutionsComponent -->
<g id="node1" class="node">
<title>NacionalSolutionsComponent</title>
<polygon fill="#ffffb3" stroke="black" points="514.27,-84.8 329.73,-84.8 329.73,-48.8 514.27,-48.8 514.27,-84.8"/>
<text text-anchor="middle" x="422" y="-62.6" font-family="Times,serif" font-size="14.00">NacionalSolutionsComponent</text>
</g>
<!-- NacionalSolutionsModule -->
<g id="node2" class="node">
<title>NacionalSolutionsModule</title>
<polygon fill="#8dd3c7" stroke="black" points="338.49,-149.8 335.49,-153.8 314.49,-153.8 311.49,-149.8 175.51,-149.8 175.51,-113.8 338.49,-113.8 338.49,-149.8"/>
<text text-anchor="middle" x="257" y="-127.6" font-family="Times,serif" font-size="14.00">NacionalSolutionsModule</text>
</g>
<!-- NacionalSolutionsComponent&#45;&gt;NacionalSolutionsModule -->
<g id="edge1" class="edge">
<title>NacionalSolutionsComponent&#45;&gt;NacionalSolutionsModule</title>
<path fill="none" stroke="black" d="M334.06,-84.91C334.06,-84.91 334.06,-103.79 334.06,-103.79"/>
<polygon fill="black" stroke="black" points="330.56,-103.79 334.06,-113.79 337.56,-103.79 330.56,-103.79"/>
</g>
<!-- NacionalSolutionsComponent  -->
<g id="node5" class="node">
<title>NacionalSolutionsComponent </title>
<polygon fill="#fb8072" stroke="black" points="351.27,-214.8 162.73,-214.8 162.73,-178.8 351.27,-178.8 351.27,-214.8"/>
<text text-anchor="middle" x="257" y="-192.6" font-family="Times,serif" font-size="14.00">NacionalSolutionsComponent </text>
</g>
<!-- NacionalSolutionsModule&#45;&gt;NacionalSolutionsComponent  -->
<g id="edge4" class="edge">
<title>NacionalSolutionsModule&#45;&gt;NacionalSolutionsComponent </title>
<path fill="none" stroke="black" stroke-dasharray="5,2" d="M257,-149.91C257,-149.91 257,-168.79 257,-168.79"/>
<polygon fill="black" stroke="black" points="253.5,-168.79 257,-178.79 260.5,-168.79 253.5,-168.79"/>
</g>
<!-- SharedModule -->
<g id="node3" class="node">
<title>SharedModule</title>
<polygon fill="#8dd3c7" stroke="black" points="306.43,-84.8 303.43,-88.8 282.43,-88.8 279.43,-84.8 207.57,-84.8 207.57,-48.8 306.43,-48.8 306.43,-84.8"/>
<text text-anchor="middle" x="257" y="-62.6" font-family="Times,serif" font-size="14.00">SharedModule</text>
</g>
<!-- SharedModule&#45;&gt;NacionalSolutionsModule -->
<g id="edge2" class="edge">
<title>SharedModule&#45;&gt;NacionalSolutionsModule</title>
<path fill="none" stroke="black" d="M257,-84.91C257,-84.91 257,-103.79 257,-103.79"/>
<polygon fill="black" stroke="black" points="253.5,-103.79 257,-113.79 260.5,-103.79 253.5,-103.79"/>
</g>
<!-- SuppliersContractsModule -->
<g id="node4" class="node">
<title>SuppliersContractsModule</title>
<polygon fill="#8dd3c7" stroke="black" points="190.1,-84.8 187.1,-88.8 166.1,-88.8 163.1,-84.8 23.9,-84.8 23.9,-48.8 190.1,-48.8 190.1,-84.8"/>
<text text-anchor="middle" x="107" y="-62.6" font-family="Times,serif" font-size="14.00">SuppliersContractsModule</text>
</g>
<!-- SuppliersContractsModule&#45;&gt;NacionalSolutionsModule -->
<g id="edge3" class="edge">
<title>SuppliersContractsModule&#45;&gt;NacionalSolutionsModule</title>
<path fill="none" stroke="black" d="M182.78,-84.91C182.78,-84.91 182.78,-103.79 182.78,-103.79"/>
<polygon fill="black" stroke="black" points="179.28,-103.79 182.78,-113.79 186.28,-103.79 179.28,-103.79"/>
</g>
</g>
</svg>
