<?xml version="1.0" encoding="UTF-8" standalone="no"?>
<!DOCTYPE svg PUBLIC "-//W3C//DTD SVG 1.1//EN"
 "http://www.w3.org/Graphics/SVG/1.1/DTD/svg11.dtd">
<!-- Generated by graphviz version 5.0.0 (20220707.1540)
 -->
<!-- Title: dependencies Pages: 1 -->
<svg width="918pt" height="247pt"
 viewBox="0.00 0.00 918.00 246.80" xmlns="http://www.w3.org/2000/svg" xmlns:xlink="http://www.w3.org/1999/xlink">
<g id="graph0" class="graph" transform="scale(1 1) rotate(0) translate(4 242.8)">
<title>dependencies</title>
<polygon fill="white" stroke="transparent" points="-4,4 -4,-242.8 914,-242.8 914,4 -4,4"/>
<text text-anchor="middle" x="455" y="-8.2" font-family="sans-serif" font-size="14.00">dependencies</text>
<g id="clust1" class="cluster">
<title>cluster_PaymentAssistanceModule</title>
<polygon fill="none" stroke="black" stroke-dasharray="1,5" points="8,-32.8 8,-230.8 902,-230.8 902,-32.8 8,-32.8"/>
</g>
<g id="clust5" class="cluster">
<title>cluster_PaymentAssistanceModule_exports</title>
<polygon fill="none" stroke="black" points="322,-170.8 322,-222.8 532,-222.8 532,-170.8 322,-170.8"/>
</g>
<g id="clust4" class="cluster">
<title>cluster_PaymentAssistanceModule_imports</title>
<polygon fill="none" stroke="black" points="230,-40.8 230,-92.8 894,-92.8 894,-40.8 230,-40.8"/>
</g>
<g id="clust2" class="cluster">
<title>cluster_PaymentAssistanceModule_declarations</title>
<polygon fill="none" stroke="black" points="16,-40.8 16,-92.8 222,-92.8 222,-40.8 16,-40.8"/>
</g>
<!-- PaymentAssistanceComponent -->
<g id="node1" class="node">
<title>PaymentAssistanceComponent</title>
<polygon fill="#ffffb3" stroke="black" points="214.2,-84.8 23.8,-84.8 23.8,-48.8 214.2,-48.8 214.2,-84.8"/>
<text text-anchor="middle" x="119" y="-62.6" font-family="Times,serif" font-size="14.00">PaymentAssistanceComponent</text>
</g>
<!-- PaymentAssistanceModule -->
<g id="node2" class="node">
<title>PaymentAssistanceModule</title>
<polygon fill="#8dd3c7" stroke="black" points="511.42,-149.8 508.42,-153.8 487.42,-153.8 484.42,-149.8 342.58,-149.8 342.58,-113.8 511.42,-113.8 511.42,-149.8"/>
<text text-anchor="middle" x="427" y="-127.6" font-family="Times,serif" font-size="14.00">PaymentAssistanceModule</text>
</g>
<!-- PaymentAssistanceComponent&#45;&gt;PaymentAssistanceModule -->
<g id="edge1" class="edge">
<title>PaymentAssistanceComponent&#45;&gt;PaymentAssistanceModule</title>
<path fill="none" stroke="black" d="M119,-84.91C119,-104.14 119,-131.8 119,-131.8 119,-131.8 332.43,-131.8 332.43,-131.8"/>
<polygon fill="black" stroke="black" points="332.43,-135.3 342.43,-131.8 332.43,-128.3 332.43,-135.3"/>
</g>
<!-- PaymentAssistanceComponent  -->
<g id="node7" class="node">
<title>PaymentAssistanceComponent </title>
<polygon fill="#fb8072" stroke="black" points="523.7,-214.8 330.3,-214.8 330.3,-178.8 523.7,-178.8 523.7,-214.8"/>
<text text-anchor="middle" x="427" y="-192.6" font-family="Times,serif" font-size="14.00">PaymentAssistanceComponent </text>
</g>
<!-- PaymentAssistanceModule&#45;&gt;PaymentAssistanceComponent  -->
<g id="edge6" class="edge">
<title>PaymentAssistanceModule&#45;&gt;PaymentAssistanceComponent </title>
<path fill="none" stroke="black" stroke-dasharray="5,2" d="M427,-149.91C427,-149.91 427,-168.79 427,-168.79"/>
<polygon fill="black" stroke="black" points="423.5,-168.79 427,-178.79 430.5,-168.79 423.5,-168.79"/>
</g>
<!-- CommonPaymentsModule -->
<g id="node3" class="node">
<title>CommonPaymentsModule</title>
<polygon fill="#8dd3c7" stroke="black" points="886.11,-84.8 883.11,-88.8 862.11,-88.8 859.11,-84.8 719.89,-84.8 719.89,-48.8 886.11,-48.8 886.11,-84.8"/>
<text text-anchor="middle" x="803" y="-62.6" font-family="Times,serif" font-size="14.00">CommonPaymentsModule</text>
</g>
<!-- CommonPaymentsModule&#45;&gt;PaymentAssistanceModule -->
<g id="edge2" class="edge">
<title>CommonPaymentsModule&#45;&gt;PaymentAssistanceModule</title>
<path fill="none" stroke="black" d="M803,-84.91C803,-104.14 803,-131.8 803,-131.8 803,-131.8 521.38,-131.8 521.38,-131.8"/>
<polygon fill="black" stroke="black" points="521.38,-128.3 511.38,-131.8 521.38,-135.3 521.38,-128.3"/>
</g>
<!-- GovernmentPaymentsModule -->
<g id="node4" class="node">
<title>GovernmentPaymentsModule</title>
<polygon fill="#8dd3c7" stroke="black" points="701.97,-84.8 698.97,-88.8 677.97,-88.8 674.97,-84.8 518.03,-84.8 518.03,-48.8 701.97,-48.8 701.97,-84.8"/>
<text text-anchor="middle" x="610" y="-62.6" font-family="Times,serif" font-size="14.00">GovernmentPaymentsModule</text>
</g>
<!-- GovernmentPaymentsModule&#45;&gt;PaymentAssistanceModule -->
<g id="edge3" class="edge">
<title>GovernmentPaymentsModule&#45;&gt;PaymentAssistanceModule</title>
<path fill="none" stroke="black" d="M517.96,-66.8C510.39,-66.8 505.57,-66.8 505.57,-66.8 505.57,-66.8 505.57,-103.69 505.57,-103.69"/>
<polygon fill="black" stroke="black" points="502.07,-103.69 505.57,-113.69 509.07,-103.69 502.07,-103.69"/>
</g>
<!-- LegalPaymentsModule -->
<g id="node5" class="node">
<title>LegalPaymentsModule</title>
<polygon fill="#8dd3c7" stroke="black" points="499.86,-84.8 496.86,-88.8 475.86,-88.8 472.86,-84.8 354.14,-84.8 354.14,-48.8 499.86,-48.8 499.86,-84.8"/>
<text text-anchor="middle" x="427" y="-62.6" font-family="Times,serif" font-size="14.00">LegalPaymentsModule</text>
</g>
<!-- LegalPaymentsModule&#45;&gt;PaymentAssistanceModule -->
<g id="edge4" class="edge">
<title>LegalPaymentsModule&#45;&gt;PaymentAssistanceModule</title>
<path fill="none" stroke="black" d="M427,-84.91C427,-84.91 427,-103.79 427,-103.79"/>
<polygon fill="black" stroke="black" points="423.5,-103.79 427,-113.79 430.5,-103.79 423.5,-103.79"/>
</g>
<!-- SharedModule -->
<g id="node6" class="node">
<title>SharedModule</title>
<polygon fill="#8dd3c7" stroke="black" points="336.43,-84.8 333.43,-88.8 312.43,-88.8 309.43,-84.8 237.57,-84.8 237.57,-48.8 336.43,-48.8 336.43,-84.8"/>
<text text-anchor="middle" x="287" y="-62.6" font-family="Times,serif" font-size="14.00">SharedModule</text>
</g>
<!-- SharedModule&#45;&gt;PaymentAssistanceModule -->
<g id="edge5" class="edge">
<title>SharedModule&#45;&gt;PaymentAssistanceModule</title>
<path fill="none" stroke="black" d="M336.29,-66.8C343.43,-66.8 348.43,-66.8 348.43,-66.8 348.43,-66.8 348.43,-103.69 348.43,-103.69"/>
<polygon fill="black" stroke="black" points="344.93,-103.69 348.43,-113.69 351.93,-103.69 344.93,-103.69"/>
</g>
</g>
</svg>
