<?xml version="1.0" encoding="UTF-8" standalone="no"?>
<!DOCTYPE svg PUBLIC "-//W3C//DTD SVG 1.1//EN"
 "http://www.w3.org/Graphics/SVG/1.1/DTD/svg11.dtd">
<!-- Generated by graphviz version 5.0.0 (20220707.1540)
 -->
<!-- Title: dependencies Pages: 1 -->
<svg width="1308pt" height="247pt"
 viewBox="0.00 0.00 1308.00 246.80" xmlns="http://www.w3.org/2000/svg" xmlns:xlink="http://www.w3.org/1999/xlink">
<g id="graph0" class="graph" transform="scale(1 1) rotate(0) translate(4 242.8)">
<title>dependencies</title>
<polygon fill="white" stroke="transparent" points="-4,4 -4,-242.8 1304,-242.8 1304,4 -4,4"/>
<text text-anchor="middle" x="650" y="-8.2" font-family="sans-serif" font-size="14.00">dependencies</text>
<g id="clust1" class="cluster">
<title>cluster_SuppliersContractsModule</title>
<polygon fill="none" stroke="black" stroke-dasharray="1,5" points="8,-32.8 8,-230.8 1292,-230.8 1292,-32.8 8,-32.8"/>
</g>
<g id="clust11" class="cluster">
<title>cluster_SuppliersContractsModule_exports</title>
<polygon fill="none" stroke="black" points="571,-170.8 571,-222.8 779,-222.8 779,-170.8 571,-170.8"/>
</g>
<g id="clust2" class="cluster">
<title>cluster_SuppliersContractsModule_declarations</title>
<polygon fill="none" stroke="black" points="138,-40.8 138,-92.8 1284,-92.8 1284,-40.8 138,-40.8"/>
</g>
<g id="clust10" class="cluster">
<title>cluster_SuppliersContractsModule_imports</title>
<polygon fill="none" stroke="black" points="16,-40.8 16,-92.8 130,-92.8 130,-40.8 16,-40.8"/>
</g>
<!-- EditComponent -->
<g id="node1" class="node">
<title>EditComponent</title>
<polygon fill="#ffffb3" stroke="black" points="1276.16,-84.8 1171.84,-84.8 1171.84,-48.8 1276.16,-48.8 1276.16,-84.8"/>
<text text-anchor="middle" x="1224" y="-62.6" font-family="Times,serif" font-size="14.00">EditComponent</text>
</g>
<!-- SuppliersContractsModule -->
<g id="node8" class="node">
<title>SuppliersContractsModule</title>
<polygon fill="#8dd3c7" stroke="black" points="758.1,-149.8 755.1,-153.8 734.1,-153.8 731.1,-149.8 591.9,-149.8 591.9,-113.8 758.1,-113.8 758.1,-149.8"/>
<text text-anchor="middle" x="675" y="-127.6" font-family="Times,serif" font-size="14.00">SuppliersContractsModule</text>
</g>
<!-- EditComponent&#45;&gt;SuppliersContractsModule -->
<g id="edge1" class="edge">
<title>EditComponent&#45;&gt;SuppliersContractsModule</title>
<path fill="none" stroke="black" d="M1224,-85.09C1224,-107.01 1224,-140.8 1224,-140.8 1224,-140.8 768.08,-140.8 768.08,-140.8"/>
<polygon fill="black" stroke="black" points="768.08,-137.3 758.08,-140.8 768.08,-144.3 768.08,-137.3"/>
</g>
<!-- EndContractComponent -->
<g id="node2" class="node">
<title>EndContractComponent</title>
<polygon fill="#ffffb3" stroke="black" points="1154.09,-84.8 1001.91,-84.8 1001.91,-48.8 1154.09,-48.8 1154.09,-84.8"/>
<text text-anchor="middle" x="1078" y="-62.6" font-family="Times,serif" font-size="14.00">EndContractComponent</text>
</g>
<!-- EndContractComponent&#45;&gt;SuppliersContractsModule -->
<g id="edge2" class="edge">
<title>EndContractComponent&#45;&gt;SuppliersContractsModule</title>
<path fill="none" stroke="black" d="M1078,-84.91C1078,-104.14 1078,-131.8 1078,-131.8 1078,-131.8 768.5,-131.8 768.5,-131.8"/>
<polygon fill="black" stroke="black" points="768.5,-128.3 758.5,-131.8 768.5,-135.3 768.5,-128.3"/>
</g>
<!-- NewSupplierComponent -->
<g id="node3" class="node">
<title>NewSupplierComponent</title>
<polygon fill="#ffffb3" stroke="black" points="983.71,-84.8 828.29,-84.8 828.29,-48.8 983.71,-48.8 983.71,-84.8"/>
<text text-anchor="middle" x="906" y="-62.6" font-family="Times,serif" font-size="14.00">NewSupplierComponent</text>
</g>
<!-- NewSupplierComponent&#45;&gt;SuppliersContractsModule -->
<g id="edge3" class="edge">
<title>NewSupplierComponent&#45;&gt;SuppliersContractsModule</title>
<path fill="none" stroke="black" d="M906,-84.83C906,-101.2 906,-122.8 906,-122.8 906,-122.8 768.07,-122.8 768.07,-122.8"/>
<polygon fill="black" stroke="black" points="768.07,-119.3 758.07,-122.8 768.07,-126.3 768.07,-119.3"/>
</g>
<!-- RemoveComponent -->
<g id="node4" class="node">
<title>RemoveComponent</title>
<polygon fill="#ffffb3" stroke="black" points="809.99,-84.8 682.01,-84.8 682.01,-48.8 809.99,-48.8 809.99,-84.8"/>
<text text-anchor="middle" x="746" y="-62.6" font-family="Times,serif" font-size="14.00">RemoveComponent</text>
</g>
<!-- RemoveComponent&#45;&gt;SuppliersContractsModule -->
<g id="edge4" class="edge">
<title>RemoveComponent&#45;&gt;SuppliersContractsModule</title>
<path fill="none" stroke="black" d="M720.03,-84.91C720.03,-84.91 720.03,-103.79 720.03,-103.79"/>
<polygon fill="black" stroke="black" points="716.53,-103.79 720.03,-113.79 723.53,-103.79 716.53,-103.79"/>
</g>
<!-- RenewComponent -->
<g id="node5" class="node">
<title>RenewComponent</title>
<polygon fill="#ffffb3" stroke="black" points="664.21,-84.8 543.79,-84.8 543.79,-48.8 664.21,-48.8 664.21,-84.8"/>
<text text-anchor="middle" x="604" y="-62.6" font-family="Times,serif" font-size="14.00">RenewComponent</text>
</g>
<!-- RenewComponent&#45;&gt;SuppliersContractsModule -->
<g id="edge5" class="edge">
<title>RenewComponent&#45;&gt;SuppliersContractsModule</title>
<path fill="none" stroke="black" d="M628.03,-84.91C628.03,-84.91 628.03,-103.79 628.03,-103.79"/>
<polygon fill="black" stroke="black" points="624.53,-103.79 628.03,-113.79 631.53,-103.79 624.53,-103.79"/>
</g>
<!-- SuppliersContractsComponent -->
<g id="node6" class="node">
<title>SuppliersContractsComponent</title>
<polygon fill="#ffffb3" stroke="black" points="525.88,-84.8 338.12,-84.8 338.12,-48.8 525.88,-48.8 525.88,-84.8"/>
<text text-anchor="middle" x="432" y="-62.6" font-family="Times,serif" font-size="14.00">SuppliersContractsComponent</text>
</g>
<!-- SuppliersContractsComponent&#45;&gt;SuppliersContractsModule -->
<g id="edge6" class="edge">
<title>SuppliersContractsComponent&#45;&gt;SuppliersContractsModule</title>
<path fill="none" stroke="black" d="M432,-84.83C432,-101.2 432,-122.8 432,-122.8 432,-122.8 581.71,-122.8 581.71,-122.8"/>
<polygon fill="black" stroke="black" points="581.71,-126.3 591.71,-122.8 581.71,-119.3 581.71,-126.3"/>
</g>
<!-- SuppliersDetailsComponent -->
<g id="node7" class="node">
<title>SuppliersDetailsComponent</title>
<polygon fill="#ffffb3" stroke="black" points="319.88,-84.8 146.12,-84.8 146.12,-48.8 319.88,-48.8 319.88,-84.8"/>
<text text-anchor="middle" x="233" y="-62.6" font-family="Times,serif" font-size="14.00">SuppliersDetailsComponent</text>
</g>
<!-- SuppliersDetailsComponent&#45;&gt;SuppliersContractsModule -->
<g id="edge7" class="edge">
<title>SuppliersDetailsComponent&#45;&gt;SuppliersContractsModule</title>
<path fill="none" stroke="black" d="M233,-84.91C233,-104.14 233,-131.8 233,-131.8 233,-131.8 581.86,-131.8 581.86,-131.8"/>
<polygon fill="black" stroke="black" points="581.86,-135.3 591.86,-131.8 581.86,-128.3 581.86,-135.3"/>
</g>
<!-- SuppliersContractsComponent  -->
<g id="node10" class="node">
<title>SuppliersContractsComponent </title>
<polygon fill="#fb8072" stroke="black" points="770.88,-214.8 579.12,-214.8 579.12,-178.8 770.88,-178.8 770.88,-214.8"/>
<text text-anchor="middle" x="675" y="-192.6" font-family="Times,serif" font-size="14.00">SuppliersContractsComponent </text>
</g>
<!-- SuppliersContractsModule&#45;&gt;SuppliersContractsComponent  -->
<g id="edge9" class="edge">
<title>SuppliersContractsModule&#45;&gt;SuppliersContractsComponent </title>
<path fill="none" stroke="black" stroke-dasharray="5,2" d="M675,-149.91C675,-149.91 675,-168.79 675,-168.79"/>
<polygon fill="black" stroke="black" points="671.5,-168.79 675,-178.79 678.5,-168.79 671.5,-168.79"/>
</g>
<!-- SharedModule -->
<g id="node9" class="node">
<title>SharedModule</title>
<polygon fill="#8dd3c7" stroke="black" points="122.43,-84.8 119.43,-88.8 98.43,-88.8 95.43,-84.8 23.57,-84.8 23.57,-48.8 122.43,-48.8 122.43,-84.8"/>
<text text-anchor="middle" x="73" y="-62.6" font-family="Times,serif" font-size="14.00">SharedModule</text>
</g>
<!-- SharedModule&#45;&gt;SuppliersContractsModule -->
<g id="edge8" class="edge">
<title>SharedModule&#45;&gt;SuppliersContractsModule</title>
<path fill="none" stroke="black" d="M73,-85.09C73,-107.01 73,-140.8 73,-140.8 73,-140.8 581.93,-140.8 581.93,-140.8"/>
<polygon fill="black" stroke="black" points="581.93,-144.3 591.93,-140.8 581.93,-137.3 581.93,-144.3"/>
</g>
</g>
</svg>
