<?xml version="1.0" encoding="UTF-8" standalone="no"?>
<!DOCTYPE svg PUBLIC "-//W3C//DTD SVG 1.1//EN"
 "http://www.w3.org/Graphics/SVG/1.1/DTD/svg11.dtd">
<!-- Generated by graphviz version 5.0.0 (20220707.1540)
 -->
<!-- Title: dependencies Pages: 1 -->
<svg width="584pt" height="247pt"
 viewBox="0.00 0.00 584.00 246.80" xmlns="http://www.w3.org/2000/svg" xmlns:xlink="http://www.w3.org/1999/xlink">
<g id="graph0" class="graph" transform="scale(1 1) rotate(0) translate(4 242.8)">
<title>dependencies</title>
<polygon fill="white" stroke="transparent" points="-4,4 -4,-242.8 580,-242.8 580,4 -4,4"/>
<text text-anchor="middle" x="288" y="-8.2" font-family="sans-serif" font-size="14.00">dependencies</text>
<g id="clust1" class="cluster">
<title>cluster_NewInternacionalContracModule</title>
<polygon fill="none" stroke="black" stroke-dasharray="1,5" points="8,-32.8 8,-230.8 568,-230.8 568,-32.8 8,-32.8"/>
</g>
<g id="clust4" class="cluster">
<title>cluster_NewInternacionalContracModule_imports</title>
<polygon fill="none" stroke="black" points="446,-40.8 446,-92.8 560,-92.8 560,-40.8 446,-40.8"/>
</g>
<g id="clust7" class="cluster">
<title>cluster_NewInternacionalContracModule_providers</title>
<polygon fill="none" stroke="black" points="266,-40.8 266,-92.8 438,-92.8 438,-40.8 266,-40.8"/>
</g>
<g id="clust2" class="cluster">
<title>cluster_NewInternacionalContracModule_declarations</title>
<polygon fill="none" stroke="black" points="16,-40.8 16,-92.8 258,-92.8 258,-40.8 16,-40.8"/>
</g>
<g id="clust5" class="cluster">
<title>cluster_NewInternacionalContracModule_exports</title>
<polygon fill="none" stroke="black" points="229,-170.8 229,-222.8 475,-222.8 475,-170.8 229,-170.8"/>
</g>
<!-- NewInternacionalContracComponent -->
<g id="node1" class="node">
<title>NewInternacionalContracComponent</title>
<polygon fill="#ffffb3" stroke="black" points="249.93,-84.8 24.07,-84.8 24.07,-48.8 249.93,-48.8 249.93,-84.8"/>
<text text-anchor="middle" x="137" y="-62.6" font-family="Times,serif" font-size="14.00">NewInternacionalContracComponent</text>
</g>
<!-- NewInternacionalContracModule -->
<g id="node2" class="node">
<title>NewInternacionalContracModule</title>
<polygon fill="#8dd3c7" stroke="black" points="454.15,-149.8 451.15,-153.8 430.15,-153.8 427.15,-149.8 249.85,-149.8 249.85,-113.8 454.15,-113.8 454.15,-149.8"/>
<text text-anchor="middle" x="352" y="-127.6" font-family="Times,serif" font-size="14.00">NewInternacionalContracModule</text>
</g>
<!-- NewInternacionalContracComponent&#45;&gt;NewInternacionalContracModule -->
<g id="edge1" class="edge">
<title>NewInternacionalContracComponent&#45;&gt;NewInternacionalContracModule</title>
<path fill="none" stroke="black" d="M243.6,-84.91C243.6,-104.14 243.6,-131.8 243.6,-131.8 243.6,-131.8 244.22,-131.8 244.22,-131.8"/>
<polygon fill="black" stroke="black" points="239.74,-135.3 249.74,-131.8 239.74,-128.3 239.74,-135.3"/>
</g>
<!-- NewInternacionalContracComponent  -->
<g id="node4" class="node">
<title>NewInternacionalContracComponent </title>
<polygon fill="#fb8072" stroke="black" points="466.93,-214.8 237.07,-214.8 237.07,-178.8 466.93,-178.8 466.93,-214.8"/>
<text text-anchor="middle" x="352" y="-192.6" font-family="Times,serif" font-size="14.00">NewInternacionalContracComponent </text>
</g>
<!-- NewInternacionalContracModule&#45;&gt;NewInternacionalContracComponent  -->
<g id="edge3" class="edge">
<title>NewInternacionalContracModule&#45;&gt;NewInternacionalContracComponent </title>
<path fill="none" stroke="black" stroke-dasharray="5,2" d="M352,-149.91C352,-149.91 352,-168.79 352,-168.79"/>
<polygon fill="black" stroke="black" points="348.5,-168.79 352,-178.79 355.5,-168.79 348.5,-168.79"/>
</g>
<!-- SharedModule -->
<g id="node3" class="node">
<title>SharedModule</title>
<polygon fill="#8dd3c7" stroke="black" points="552.43,-84.8 549.43,-88.8 528.43,-88.8 525.43,-84.8 453.57,-84.8 453.57,-48.8 552.43,-48.8 552.43,-84.8"/>
<text text-anchor="middle" x="503" y="-62.6" font-family="Times,serif" font-size="14.00">SharedModule</text>
</g>
<!-- SharedModule&#45;&gt;NewInternacionalContracModule -->
<g id="edge2" class="edge">
<title>SharedModule&#45;&gt;NewInternacionalContracModule</title>
<path fill="none" stroke="black" d="M460.4,-84.91C460.4,-104.14 460.4,-131.8 460.4,-131.8 460.4,-131.8 459.78,-131.8 459.78,-131.8"/>
<polygon fill="black" stroke="black" points="464.26,-128.3 454.26,-131.8 464.26,-135.3 464.26,-128.3"/>
</g>
<!-- CompanyService -->
<g id="node5" class="node">
<title>CompanyService</title>
<ellipse fill="#fdb462" stroke="black" cx="352" cy="-66.8" rx="77.59" ry="18"/>
<text text-anchor="middle" x="352" y="-62.6" font-family="Times,serif" font-size="14.00">CompanyService</text>
</g>
<!-- CompanyService&#45;&gt;NewInternacionalContracModule -->
<g id="edge4" class="edge">
<title>CompanyService&#45;&gt;NewInternacionalContracModule</title>
<path fill="none" stroke="black" d="M352,-84.91C352,-84.91 352,-103.79 352,-103.79"/>
<polygon fill="black" stroke="black" points="348.5,-103.79 352,-113.79 355.5,-103.79 348.5,-103.79"/>
</g>
</g>
</svg>
