<?xml version="1.0" encoding="UTF-8" standalone="no"?>
<!DOCTYPE svg PUBLIC "-//W3C//DTD SVG 1.1//EN"
 "http://www.w3.org/Graphics/SVG/1.1/DTD/svg11.dtd">
<!-- Generated by graphviz version 5.0.0 (20220707.1540)
 -->
<!-- Title: dependencies Pages: 1 -->
<svg width="564pt" height="247pt"
 viewBox="0.00 0.00 564.00 246.80" xmlns="http://www.w3.org/2000/svg" xmlns:xlink="http://www.w3.org/1999/xlink">
<g id="graph0" class="graph" transform="scale(1 1) rotate(0) translate(4 242.8)">
<title>dependencies</title>
<polygon fill="white" stroke="transparent" points="-4,4 -4,-242.8 560,-242.8 560,4 -4,4"/>
<text text-anchor="middle" x="278" y="-8.2" font-family="sans-serif" font-size="14.00">dependencies</text>
<g id="clust1" class="cluster">
<title>cluster_NewNacionalContracModule</title>
<polygon fill="none" stroke="black" stroke-dasharray="1,5" points="8,-32.8 8,-230.8 548,-230.8 548,-32.8 8,-32.8"/>
</g>
<g id="clust5" class="cluster">
<title>cluster_NewNacionalContracModule_exports</title>
<polygon fill="none" stroke="black" points="190,-170.8 190,-222.8 416,-222.8 416,-170.8 190,-170.8"/>
</g>
<g id="clust7" class="cluster">
<title>cluster_NewNacionalContracModule_providers</title>
<polygon fill="none" stroke="black" points="368,-40.8 368,-92.8 540,-92.8 540,-40.8 368,-40.8"/>
</g>
<g id="clust4" class="cluster">
<title>cluster_NewNacionalContracModule_imports</title>
<polygon fill="none" stroke="black" points="246,-40.8 246,-92.8 360,-92.8 360,-40.8 246,-40.8"/>
</g>
<g id="clust2" class="cluster">
<title>cluster_NewNacionalContracModule_declarations</title>
<polygon fill="none" stroke="black" points="16,-40.8 16,-92.8 238,-92.8 238,-40.8 16,-40.8"/>
</g>
<!-- NewNacionalContractComponent -->
<g id="node1" class="node">
<title>NewNacionalContractComponent</title>
<polygon fill="#ffffb3" stroke="black" points="230,-84.8 24,-84.8 24,-48.8 230,-48.8 230,-84.8"/>
<text text-anchor="middle" x="127" y="-62.6" font-family="Times,serif" font-size="14.00">NewNacionalContractComponent</text>
</g>
<!-- NewNacionalContracModule -->
<g id="node2" class="node">
<title>NewNacionalContracModule</title>
<polygon fill="#8dd3c7" stroke="black" points="393.34,-149.8 390.34,-153.8 369.34,-153.8 366.34,-149.8 212.66,-149.8 212.66,-113.8 393.34,-113.8 393.34,-149.8"/>
<text text-anchor="middle" x="303" y="-127.6" font-family="Times,serif" font-size="14.00">NewNacionalContracModule</text>
</g>
<!-- NewNacionalContractComponent&#45;&gt;NewNacionalContracModule -->
<g id="edge1" class="edge">
<title>NewNacionalContractComponent&#45;&gt;NewNacionalContracModule</title>
<path fill="none" stroke="black" d="M221.42,-84.91C221.42,-84.91 221.42,-103.79 221.42,-103.79"/>
<polygon fill="black" stroke="black" points="217.92,-103.79 221.42,-113.79 224.92,-103.79 217.92,-103.79"/>
</g>
<!-- NewNacionalContractComponent  -->
<g id="node4" class="node">
<title>NewNacionalContractComponent </title>
<polygon fill="#fb8072" stroke="black" points="408,-214.8 198,-214.8 198,-178.8 408,-178.8 408,-214.8"/>
<text text-anchor="middle" x="303" y="-192.6" font-family="Times,serif" font-size="14.00">NewNacionalContractComponent </text>
</g>
<!-- NewNacionalContracModule&#45;&gt;NewNacionalContractComponent  -->
<g id="edge3" class="edge">
<title>NewNacionalContracModule&#45;&gt;NewNacionalContractComponent </title>
<path fill="none" stroke="black" stroke-dasharray="5,2" d="M303,-149.91C303,-149.91 303,-168.79 303,-168.79"/>
<polygon fill="black" stroke="black" points="299.5,-168.79 303,-178.79 306.5,-168.79 299.5,-168.79"/>
</g>
<!-- SharedModule -->
<g id="node3" class="node">
<title>SharedModule</title>
<polygon fill="#8dd3c7" stroke="black" points="352.43,-84.8 349.43,-88.8 328.43,-88.8 325.43,-84.8 253.57,-84.8 253.57,-48.8 352.43,-48.8 352.43,-84.8"/>
<text text-anchor="middle" x="303" y="-62.6" font-family="Times,serif" font-size="14.00">SharedModule</text>
</g>
<!-- SharedModule&#45;&gt;NewNacionalContracModule -->
<g id="edge2" class="edge">
<title>SharedModule&#45;&gt;NewNacionalContracModule</title>
<path fill="none" stroke="black" d="M303,-84.91C303,-84.91 303,-103.79 303,-103.79"/>
<polygon fill="black" stroke="black" points="299.5,-103.79 303,-113.79 306.5,-103.79 299.5,-103.79"/>
</g>
<!-- CompanyService -->
<g id="node5" class="node">
<title>CompanyService</title>
<ellipse fill="#fdb462" stroke="black" cx="454" cy="-66.8" rx="77.59" ry="18"/>
<text text-anchor="middle" x="454" y="-62.6" font-family="Times,serif" font-size="14.00">CompanyService</text>
</g>
<!-- CompanyService&#45;&gt;NewNacionalContracModule -->
<g id="edge4" class="edge">
<title>CompanyService&#45;&gt;NewNacionalContracModule</title>
<path fill="none" stroke="black" d="M384.94,-75.03C384.94,-75.03 384.94,-103.56 384.94,-103.56"/>
<polygon fill="black" stroke="black" points="381.44,-103.56 384.94,-113.56 388.44,-103.56 381.44,-103.56"/>
</g>
</g>
</svg>
