<?xml version="1.0" encoding="UTF-8" standalone="no"?>
<!DOCTYPE svg PUBLIC "-//W3C//DTD SVG 1.1//EN"
 "http://www.w3.org/Graphics/SVG/1.1/DTD/svg11.dtd">
<!-- Generated by graphviz version 5.0.0 (20220707.1540)
 -->
<!-- Title: dependencies Pages: 1 -->
<svg width="886pt" height="247pt"
 viewBox="0.00 0.00 886.00 246.80" xmlns="http://www.w3.org/2000/svg" xmlns:xlink="http://www.w3.org/1999/xlink">
<g id="graph0" class="graph" transform="scale(1 1) rotate(0) translate(4 242.8)">
<title>dependencies</title>
<polygon fill="white" stroke="transparent" points="-4,4 -4,-242.8 882,-242.8 882,4 -4,4"/>
<text text-anchor="middle" x="439" y="-8.2" font-family="sans-serif" font-size="14.00">dependencies</text>
<g id="clust1" class="cluster">
<title>cluster_CommonPaymentsModule</title>
<polygon fill="none" stroke="black" stroke-dasharray="1,5" points="8,-32.8 8,-230.8 870,-230.8 870,-32.8 8,-32.8"/>
</g>
<g id="clust2" class="cluster">
<title>cluster_CommonPaymentsModule_declarations</title>
<polygon fill="none" stroke="black" points="138,-40.8 138,-92.8 862,-92.8 862,-40.8 138,-40.8"/>
</g>
<g id="clust8" class="cluster">
<title>cluster_CommonPaymentsModule_exports</title>
<polygon fill="none" stroke="black" points="299,-170.8 299,-222.8 507,-222.8 507,-170.8 299,-170.8"/>
</g>
<g id="clust7" class="cluster">
<title>cluster_CommonPaymentsModule_imports</title>
<polygon fill="none" stroke="black" points="16,-40.8 16,-92.8 130,-92.8 130,-40.8 16,-40.8"/>
</g>
<!-- BillReceiptComponent -->
<g id="node1" class="node">
<title>BillReceiptComponent</title>
<polygon fill="#ffffb3" stroke="black" points="853.6,-84.8 708.4,-84.8 708.4,-48.8 853.6,-48.8 853.6,-84.8"/>
<text text-anchor="middle" x="781" y="-62.6" font-family="Times,serif" font-size="14.00">BillReceiptComponent</text>
</g>
<!-- CommonPaymentsModule -->
<g id="node5" class="node">
<title>CommonPaymentsModule</title>
<polygon fill="#8dd3c7" stroke="black" points="486.11,-149.8 483.11,-153.8 462.11,-153.8 459.11,-149.8 319.89,-149.8 319.89,-113.8 486.11,-113.8 486.11,-149.8"/>
<text text-anchor="middle" x="403" y="-127.6" font-family="Times,serif" font-size="14.00">CommonPaymentsModule</text>
</g>
<!-- BillReceiptComponent&#45;&gt;CommonPaymentsModule -->
<g id="edge1" class="edge">
<title>BillReceiptComponent&#45;&gt;CommonPaymentsModule</title>
<path fill="none" stroke="black" d="M781,-85.08C781,-106.12 781,-137.8 781,-137.8 781,-137.8 496.42,-137.8 496.42,-137.8"/>
<polygon fill="black" stroke="black" points="496.42,-134.3 486.42,-137.8 496.42,-141.3 496.42,-134.3"/>
</g>
<!-- CommonPaymentsComponent -->
<g id="node2" class="node">
<title>CommonPaymentsComponent</title>
<polygon fill="#ffffb3" stroke="black" points="690.89,-84.8 503.11,-84.8 503.11,-48.8 690.89,-48.8 690.89,-84.8"/>
<text text-anchor="middle" x="597" y="-62.6" font-family="Times,serif" font-size="14.00">CommonPaymentsComponent</text>
</g>
<!-- CommonPaymentsComponent&#45;&gt;CommonPaymentsModule -->
<g id="edge2" class="edge">
<title>CommonPaymentsComponent&#45;&gt;CommonPaymentsModule</title>
<path fill="none" stroke="black" d="M597,-84.82C597,-102.17 597,-125.8 597,-125.8 597,-125.8 496.12,-125.8 496.12,-125.8"/>
<polygon fill="black" stroke="black" points="496.12,-122.3 486.12,-125.8 496.12,-129.3 496.12,-122.3"/>
</g>
<!-- DeleteRegisterComponent -->
<g id="node3" class="node">
<title>DeleteRegisterComponent</title>
<polygon fill="#ffffb3" stroke="black" points="485.02,-84.8 320.98,-84.8 320.98,-48.8 485.02,-48.8 485.02,-84.8"/>
<text text-anchor="middle" x="403" y="-62.6" font-family="Times,serif" font-size="14.00">DeleteRegisterComponent</text>
</g>
<!-- DeleteRegisterComponent&#45;&gt;CommonPaymentsModule -->
<g id="edge3" class="edge">
<title>DeleteRegisterComponent&#45;&gt;CommonPaymentsModule</title>
<path fill="none" stroke="black" d="M403,-84.91C403,-84.91 403,-103.79 403,-103.79"/>
<polygon fill="black" stroke="black" points="399.5,-103.79 403,-113.79 406.5,-103.79 399.5,-103.79"/>
</g>
<!-- NewPaymentComponent -->
<g id="node4" class="node">
<title>NewPaymentComponent</title>
<polygon fill="#ffffb3" stroke="black" points="302.26,-84.8 145.74,-84.8 145.74,-48.8 302.26,-48.8 302.26,-84.8"/>
<text text-anchor="middle" x="224" y="-62.6" font-family="Times,serif" font-size="14.00">NewPaymentComponent</text>
</g>
<!-- NewPaymentComponent&#45;&gt;CommonPaymentsModule -->
<g id="edge4" class="edge">
<title>NewPaymentComponent&#45;&gt;CommonPaymentsModule</title>
<path fill="none" stroke="black" d="M224,-84.82C224,-102.17 224,-125.8 224,-125.8 224,-125.8 309.79,-125.8 309.79,-125.8"/>
<polygon fill="black" stroke="black" points="309.79,-129.3 319.79,-125.8 309.79,-122.3 309.79,-129.3"/>
</g>
<!-- CommonPaymentsComponent  -->
<g id="node7" class="node">
<title>CommonPaymentsComponent </title>
<polygon fill="#fb8072" stroke="black" points="498.89,-214.8 307.11,-214.8 307.11,-178.8 498.89,-178.8 498.89,-214.8"/>
<text text-anchor="middle" x="403" y="-192.6" font-family="Times,serif" font-size="14.00">CommonPaymentsComponent </text>
</g>
<!-- CommonPaymentsModule&#45;&gt;CommonPaymentsComponent  -->
<g id="edge6" class="edge">
<title>CommonPaymentsModule&#45;&gt;CommonPaymentsComponent </title>
<path fill="none" stroke="black" stroke-dasharray="5,2" d="M403,-149.91C403,-149.91 403,-168.79 403,-168.79"/>
<polygon fill="black" stroke="black" points="399.5,-168.79 403,-178.79 406.5,-168.79 399.5,-168.79"/>
</g>
<!-- SharedModule -->
<g id="node6" class="node">
<title>SharedModule</title>
<polygon fill="#8dd3c7" stroke="black" points="122.43,-84.8 119.43,-88.8 98.43,-88.8 95.43,-84.8 23.57,-84.8 23.57,-48.8 122.43,-48.8 122.43,-84.8"/>
<text text-anchor="middle" x="73" y="-62.6" font-family="Times,serif" font-size="14.00">SharedModule</text>
</g>
<!-- SharedModule&#45;&gt;CommonPaymentsModule -->
<g id="edge5" class="edge">
<title>SharedModule&#45;&gt;CommonPaymentsModule</title>
<path fill="none" stroke="black" d="M73,-85.08C73,-106.12 73,-137.8 73,-137.8 73,-137.8 309.73,-137.8 309.73,-137.8"/>
<polygon fill="black" stroke="black" points="309.73,-141.3 319.73,-137.8 309.73,-134.3 309.73,-141.3"/>
</g>
</g>
</svg>
