<?xml version="1.0" encoding="UTF-8" standalone="no"?>
<!DOCTYPE svg PUBLIC "-//W3C//DTD SVG 1.1//EN"
 "http://www.w3.org/Graphics/SVG/1.1/DTD/svg11.dtd">
<!-- Generated by graphviz version 5.0.0 (20220707.1540)
 -->
<!-- Title: dependencies Pages: 1 -->
<svg width="972pt" height="247pt"
 viewBox="0.00 0.00 972.00 246.80" xmlns="http://www.w3.org/2000/svg" xmlns:xlink="http://www.w3.org/1999/xlink">
<g id="graph0" class="graph" transform="scale(1 1) rotate(0) translate(4 242.8)">
<title>dependencies</title>
<polygon fill="white" stroke="transparent" points="-4,4 -4,-242.8 968,-242.8 968,4 -4,4"/>
<text text-anchor="middle" x="482" y="-8.2" font-family="sans-serif" font-size="14.00">dependencies</text>
<g id="clust1" class="cluster">
<title>cluster_SearchEmployeeModule</title>
<polygon fill="none" stroke="black" stroke-dasharray="1,5" points="8,-32.8 8,-230.8 956,-230.8 956,-32.8 8,-32.8"/>
</g>
<g id="clust8" class="cluster">
<title>cluster_SearchEmployeeModule_exports</title>
<polygon fill="none" stroke="black" points="437,-170.8 437,-222.8 633,-222.8 633,-170.8 437,-170.8"/>
</g>
<g id="clust7" class="cluster">
<title>cluster_SearchEmployeeModule_imports</title>
<polygon fill="none" stroke="black" points="834,-40.8 834,-92.8 948,-92.8 948,-40.8 834,-40.8"/>
</g>
<g id="clust2" class="cluster">
<title>cluster_SearchEmployeeModule_declarations</title>
<polygon fill="none" stroke="black" points="16,-40.8 16,-92.8 826,-92.8 826,-40.8 16,-40.8"/>
</g>
<!-- EditEmployeeComponent -->
<g id="node1" class="node">
<title>EditEmployeeComponent</title>
<polygon fill="#ffffb3" stroke="black" points="817.92,-84.8 656.08,-84.8 656.08,-48.8 817.92,-48.8 817.92,-84.8"/>
<text text-anchor="middle" x="737" y="-62.6" font-family="Times,serif" font-size="14.00">EditEmployeeComponent</text>
</g>
<!-- SearchEmployeeModule -->
<g id="node5" class="node">
<title>SearchEmployeeModule</title>
<polygon fill="#8dd3c7" stroke="black" points="612.4,-149.8 609.4,-153.8 588.4,-153.8 585.4,-149.8 457.6,-149.8 457.6,-113.8 612.4,-113.8 612.4,-149.8"/>
<text text-anchor="middle" x="535" y="-127.6" font-family="Times,serif" font-size="14.00">SearchEmployeeModule</text>
</g>
<!-- EditEmployeeComponent&#45;&gt;SearchEmployeeModule -->
<g id="edge1" class="edge">
<title>EditEmployeeComponent&#45;&gt;SearchEmployeeModule</title>
<path fill="none" stroke="black" d="M737,-84.82C737,-102.17 737,-125.8 737,-125.8 737,-125.8 622.23,-125.8 622.23,-125.8"/>
<polygon fill="black" stroke="black" points="622.23,-122.3 612.23,-125.8 622.23,-129.3 622.23,-122.3"/>
</g>
<!-- EmployeeTerminationComponent -->
<g id="node2" class="node">
<title>EmployeeTerminationComponent</title>
<polygon fill="#ffffb3" stroke="black" points="638.79,-84.8 431.21,-84.8 431.21,-48.8 638.79,-48.8 638.79,-84.8"/>
<text text-anchor="middle" x="535" y="-62.6" font-family="Times,serif" font-size="14.00">EmployeeTerminationComponent</text>
</g>
<!-- EmployeeTerminationComponent&#45;&gt;SearchEmployeeModule -->
<g id="edge2" class="edge">
<title>EmployeeTerminationComponent&#45;&gt;SearchEmployeeModule</title>
<path fill="none" stroke="black" d="M535,-84.91C535,-84.91 535,-103.79 535,-103.79"/>
<polygon fill="black" stroke="black" points="531.5,-103.79 535,-113.79 538.5,-103.79 531.5,-103.79"/>
</g>
<!-- FullDetailEmployeeComponent -->
<g id="node3" class="node">
<title>FullDetailEmployeeComponent</title>
<polygon fill="#ffffb3" stroke="black" points="413.36,-84.8 218.64,-84.8 218.64,-48.8 413.36,-48.8 413.36,-84.8"/>
<text text-anchor="middle" x="316" y="-62.6" font-family="Times,serif" font-size="14.00">FullDetailEmployeeComponent</text>
</g>
<!-- FullDetailEmployeeComponent&#45;&gt;SearchEmployeeModule -->
<g id="edge3" class="edge">
<title>FullDetailEmployeeComponent&#45;&gt;SearchEmployeeModule</title>
<path fill="none" stroke="black" d="M316,-84.82C316,-102.17 316,-125.8 316,-125.8 316,-125.8 447.79,-125.8 447.79,-125.8"/>
<polygon fill="black" stroke="black" points="447.79,-129.3 457.79,-125.8 447.79,-122.3 447.79,-129.3"/>
</g>
<!-- SearchEmployeeComponent -->
<g id="node4" class="node">
<title>SearchEmployeeComponent</title>
<polygon fill="#ffffb3" stroke="black" points="200.18,-84.8 23.82,-84.8 23.82,-48.8 200.18,-48.8 200.18,-84.8"/>
<text text-anchor="middle" x="112" y="-62.6" font-family="Times,serif" font-size="14.00">SearchEmployeeComponent</text>
</g>
<!-- SearchEmployeeComponent&#45;&gt;SearchEmployeeModule -->
<g id="edge4" class="edge">
<title>SearchEmployeeComponent&#45;&gt;SearchEmployeeModule</title>
<path fill="none" stroke="black" d="M112,-85.08C112,-106.12 112,-137.8 112,-137.8 112,-137.8 447.42,-137.8 447.42,-137.8"/>
<polygon fill="black" stroke="black" points="447.42,-141.3 457.42,-137.8 447.42,-134.3 447.42,-141.3"/>
</g>
<!-- SearchEmployeeComponent  -->
<g id="node7" class="node">
<title>SearchEmployeeComponent </title>
<polygon fill="#fb8072" stroke="black" points="624.68,-214.8 445.32,-214.8 445.32,-178.8 624.68,-178.8 624.68,-214.8"/>
<text text-anchor="middle" x="535" y="-192.6" font-family="Times,serif" font-size="14.00">SearchEmployeeComponent </text>
</g>
<!-- SearchEmployeeModule&#45;&gt;SearchEmployeeComponent  -->
<g id="edge6" class="edge">
<title>SearchEmployeeModule&#45;&gt;SearchEmployeeComponent </title>
<path fill="none" stroke="black" stroke-dasharray="5,2" d="M535,-149.91C535,-149.91 535,-168.79 535,-168.79"/>
<polygon fill="black" stroke="black" points="531.5,-168.79 535,-178.79 538.5,-168.79 531.5,-168.79"/>
</g>
<!-- SharedModule -->
<g id="node6" class="node">
<title>SharedModule</title>
<polygon fill="#8dd3c7" stroke="black" points="940.43,-84.8 937.43,-88.8 916.43,-88.8 913.43,-84.8 841.57,-84.8 841.57,-48.8 940.43,-48.8 940.43,-84.8"/>
<text text-anchor="middle" x="891" y="-62.6" font-family="Times,serif" font-size="14.00">SharedModule</text>
</g>
<!-- SharedModule&#45;&gt;SearchEmployeeModule -->
<g id="edge5" class="edge">
<title>SharedModule&#45;&gt;SearchEmployeeModule</title>
<path fill="none" stroke="black" d="M891,-85.08C891,-106.12 891,-137.8 891,-137.8 891,-137.8 622.25,-137.8 622.25,-137.8"/>
<polygon fill="black" stroke="black" points="622.25,-134.3 612.25,-137.8 622.25,-141.3 622.25,-134.3"/>
</g>
</g>
</svg>
