<?xml version="1.0" encoding="UTF-8" standalone="no"?>
<!DOCTYPE svg PUBLIC "-//W3C//DTD SVG 1.1//EN"
 "http://www.w3.org/Graphics/SVG/1.1/DTD/svg11.dtd">
<!-- Generated by graphviz version 5.0.0 (20220707.1540)
 -->
<!-- Title: dependencies Pages: 1 -->
<svg width="1615pt" height="247pt"
 viewBox="0.00 0.00 1615.00 246.80" xmlns="http://www.w3.org/2000/svg" xmlns:xlink="http://www.w3.org/1999/xlink">
<g id="graph0" class="graph" transform="scale(1 1) rotate(0) translate(4 242.8)">
<title>dependencies</title>
<polygon fill="white" stroke="transparent" points="-4,4 -4,-242.8 1611,-242.8 1611,4 -4,4"/>
<text text-anchor="middle" x="803.5" y="-8.2" font-family="sans-serif" font-size="14.00">dependencies</text>
<g id="clust1" class="cluster">
<title>cluster_AppModule</title>
<polygon fill="none" stroke="black" stroke-dasharray="1,5" points="8,-32.8 8,-230.8 1599,-230.8 1599,-32.8 8,-32.8"/>
</g>
<g id="clust5" class="cluster">
<title>cluster_AppModule_imports</title>
<polygon fill="none" stroke="black" points="286,-40.8 286,-92.8 1591,-92.8 1591,-40.8 286,-40.8"/>
</g>
<g id="clust7" class="cluster">
<title>cluster_AppModule_bootstrap</title>
<polygon fill="none" stroke="black" points="769,-170.8 769,-222.8 893,-222.8 893,-170.8 769,-170.8"/>
</g>
<g id="clust2" class="cluster">
<title>cluster_AppModule_declarations</title>
<polygon fill="none" stroke="black" points="16,-40.8 16,-92.8 278,-92.8 278,-40.8 16,-40.8"/>
</g>
<!-- AppComponent -->
<g id="node1" class="node">
<title>AppComponent</title>
<polygon fill="#ffffb3" stroke="black" points="269.94,-84.8 164.06,-84.8 164.06,-48.8 269.94,-48.8 269.94,-84.8"/>
<text text-anchor="middle" x="217" y="-62.6" font-family="Times,serif" font-size="14.00">AppComponent</text>
</g>
<!-- AppModule -->
<g id="node3" class="node">
<title>AppModule</title>
<polygon fill="#8dd3c7" stroke="black" points="872.66,-149.8 869.66,-153.8 848.66,-153.8 845.66,-149.8 789.34,-149.8 789.34,-113.8 872.66,-113.8 872.66,-149.8"/>
<text text-anchor="middle" x="831" y="-127.6" font-family="Times,serif" font-size="14.00">AppModule</text>
</g>
<!-- AppComponent&#45;&gt;AppModule -->
<g id="edge1" class="edge">
<title>AppComponent&#45;&gt;AppModule</title>
<path fill="none" stroke="black" d="M217,-84.93C217,-105.37 217,-135.8 217,-135.8 217,-135.8 779.28,-135.8 779.28,-135.8"/>
<polygon fill="black" stroke="black" points="779.28,-139.3 789.28,-135.8 779.28,-132.3 779.28,-139.3"/>
</g>
<!-- HeaderComponent -->
<g id="node2" class="node">
<title>HeaderComponent</title>
<polygon fill="#ffffb3" stroke="black" points="145.75,-84.8 24.25,-84.8 24.25,-48.8 145.75,-48.8 145.75,-84.8"/>
<text text-anchor="middle" x="85" y="-62.6" font-family="Times,serif" font-size="14.00">HeaderComponent</text>
</g>
<!-- HeaderComponent&#45;&gt;AppModule -->
<g id="edge2" class="edge">
<title>HeaderComponent&#45;&gt;AppModule</title>
<path fill="none" stroke="black" d="M85,-84.81C85,-107.29 85,-142.8 85,-142.8 85,-142.8 779.29,-142.8 779.29,-142.8"/>
<polygon fill="black" stroke="black" points="779.29,-146.3 789.29,-142.8 779.29,-139.3 779.29,-146.3"/>
</g>
<!-- AppComponent  -->
<g id="node12" class="node">
<title>AppComponent </title>
<polygon fill="#80b1d3" stroke="black" points="885.44,-214.8 776.56,-214.8 776.56,-178.8 885.44,-178.8 885.44,-214.8"/>
<text text-anchor="middle" x="831" y="-192.6" font-family="Times,serif" font-size="14.00">AppComponent </text>
</g>
<!-- AppModule&#45;&gt;AppComponent  -->
<g id="edge11" class="edge">
<title>AppModule&#45;&gt;AppComponent </title>
<path fill="none" stroke="black" stroke-dasharray="1,5" d="M831,-149.91C831,-149.91 831,-168.79 831,-168.79"/>
<polygon fill="black" stroke="black" points="827.5,-168.79 831,-178.79 834.5,-168.79 827.5,-168.79"/>
</g>
<!-- AppRoutingModule -->
<g id="node4" class="node">
<title>AppRoutingModule</title>
<polygon fill="#8dd3c7" stroke="black" points="1583.28,-84.8 1580.28,-88.8 1559.28,-88.8 1556.28,-84.8 1454.72,-84.8 1454.72,-48.8 1583.28,-48.8 1583.28,-84.8"/>
<text text-anchor="middle" x="1519" y="-62.6" font-family="Times,serif" font-size="14.00">AppRoutingModule</text>
</g>
<!-- AppRoutingModule&#45;&gt;AppModule -->
<g id="edge3" class="edge">
<title>AppRoutingModule&#45;&gt;AppModule</title>
<path fill="none" stroke="black" d="M1519,-84.81C1519,-107.29 1519,-142.8 1519,-142.8 1519,-142.8 882.74,-142.8 882.74,-142.8"/>
<polygon fill="black" stroke="black" points="882.74,-139.3 872.74,-142.8 882.74,-146.3 882.74,-139.3"/>
</g>
<!-- AuthModule -->
<g id="node5" class="node">
<title>AuthModule</title>
<polygon fill="#8dd3c7" stroke="black" points="1436.55,-84.8 1433.55,-88.8 1412.55,-88.8 1409.55,-84.8 1349.45,-84.8 1349.45,-48.8 1436.55,-48.8 1436.55,-84.8"/>
<text text-anchor="middle" x="1393" y="-62.6" font-family="Times,serif" font-size="14.00">AuthModule</text>
</g>
<!-- AuthModule&#45;&gt;AppModule -->
<g id="edge4" class="edge">
<title>AuthModule&#45;&gt;AppModule</title>
<path fill="none" stroke="black" d="M1393,-84.93C1393,-105.37 1393,-135.8 1393,-135.8 1393,-135.8 882.78,-135.8 882.78,-135.8"/>
<polygon fill="black" stroke="black" points="882.78,-132.3 872.78,-135.8 882.78,-139.3 882.78,-132.3"/>
</g>
<!-- HomeModule -->
<g id="node6" class="node">
<title>HomeModule</title>
<polygon fill="#8dd3c7" stroke="black" points="1330.77,-84.8 1327.77,-88.8 1306.77,-88.8 1303.77,-84.8 1237.23,-84.8 1237.23,-48.8 1330.77,-48.8 1330.77,-84.8"/>
<text text-anchor="middle" x="1284" y="-62.6" font-family="Times,serif" font-size="14.00">HomeModule</text>
</g>
<!-- HomeModule&#45;&gt;AppModule -->
<g id="edge5" class="edge">
<title>HomeModule&#45;&gt;AppModule</title>
<path fill="none" stroke="black" d="M1284,-85.07C1284,-103.36 1284,-128.8 1284,-128.8 1284,-128.8 882.81,-128.8 882.81,-128.8"/>
<polygon fill="black" stroke="black" points="882.81,-125.3 872.81,-128.8 882.81,-132.3 882.81,-125.3"/>
</g>
<!-- NacionalSolutionsModule -->
<g id="node7" class="node">
<title>NacionalSolutionsModule</title>
<polygon fill="#8dd3c7" stroke="black" points="1219.49,-84.8 1216.49,-88.8 1195.49,-88.8 1192.49,-84.8 1056.51,-84.8 1056.51,-48.8 1219.49,-48.8 1219.49,-84.8"/>
<text text-anchor="middle" x="1138" y="-62.6" font-family="Times,serif" font-size="14.00">NacionalSolutionsModule</text>
</g>
<!-- NacionalSolutionsModule&#45;&gt;AppModule -->
<g id="edge6" class="edge">
<title>NacionalSolutionsModule&#45;&gt;AppModule</title>
<path fill="none" stroke="black" d="M1138,-84.81C1138,-100.85 1138,-121.8 1138,-121.8 1138,-121.8 882.72,-121.8 882.72,-121.8"/>
<polygon fill="black" stroke="black" points="882.72,-118.3 872.72,-121.8 882.72,-125.3 882.72,-118.3"/>
</g>
<!-- NewInternacionalContracModule -->
<g id="node8" class="node">
<title>NewInternacionalContracModule</title>
<polygon fill="#8dd3c7" stroke="black" points="1038.15,-84.8 1035.15,-88.8 1014.15,-88.8 1011.15,-84.8 833.85,-84.8 833.85,-48.8 1038.15,-48.8 1038.15,-84.8"/>
<text text-anchor="middle" x="936" y="-62.6" font-family="Times,serif" font-size="14.00">NewInternacionalContracModule</text>
</g>
<!-- NewInternacionalContracModule&#45;&gt;AppModule -->
<g id="edge7" class="edge">
<title>NewInternacionalContracModule&#45;&gt;AppModule</title>
<path fill="none" stroke="black" d="M853.38,-84.91C853.38,-84.91 853.38,-103.79 853.38,-103.79"/>
<polygon fill="black" stroke="black" points="849.88,-103.79 853.38,-113.79 856.88,-103.79 849.88,-103.79"/>
</g>
<!-- NewNacionalContracModule -->
<g id="node9" class="node">
<title>NewNacionalContracModule</title>
<polygon fill="#8dd3c7" stroke="black" points="816.34,-84.8 813.34,-88.8 792.34,-88.8 789.34,-84.8 635.66,-84.8 635.66,-48.8 816.34,-48.8 816.34,-84.8"/>
<text text-anchor="middle" x="726" y="-62.6" font-family="Times,serif" font-size="14.00">NewNacionalContracModule</text>
</g>
<!-- NewNacionalContracModule&#45;&gt;AppModule -->
<g id="edge8" class="edge">
<title>NewNacionalContracModule&#45;&gt;AppModule</title>
<path fill="none" stroke="black" d="M802.79,-84.91C802.79,-84.91 802.79,-103.79 802.79,-103.79"/>
<polygon fill="black" stroke="black" points="799.29,-103.79 802.79,-113.79 806.29,-103.79 799.29,-103.79"/>
</g>
<!-- SearchCompanyModule -->
<g id="node10" class="node">
<title>SearchCompanyModule</title>
<polygon fill="#8dd3c7" stroke="black" points="618.08,-84.8 615.08,-88.8 594.08,-88.8 591.08,-84.8 465.92,-84.8 465.92,-48.8 618.08,-48.8 618.08,-84.8"/>
<text text-anchor="middle" x="542" y="-62.6" font-family="Times,serif" font-size="14.00">SearchCompanyModule</text>
</g>
<!-- SearchCompanyModule&#45;&gt;AppModule -->
<g id="edge9" class="edge">
<title>SearchCompanyModule&#45;&gt;AppModule</title>
<path fill="none" stroke="black" d="M542,-84.81C542,-100.85 542,-121.8 542,-121.8 542,-121.8 779.29,-121.8 779.29,-121.8"/>
<polygon fill="black" stroke="black" points="779.29,-125.3 789.29,-121.8 779.29,-118.3 779.29,-125.3"/>
</g>
<!-- SearchEmployeeModule -->
<g id="node11" class="node">
<title>SearchEmployeeModule</title>
<polygon fill="#8dd3c7" stroke="black" points="448.4,-84.8 445.4,-88.8 424.4,-88.8 421.4,-84.8 293.6,-84.8 293.6,-48.8 448.4,-48.8 448.4,-84.8"/>
<text text-anchor="middle" x="371" y="-62.6" font-family="Times,serif" font-size="14.00">SearchEmployeeModule</text>
</g>
<!-- SearchEmployeeModule&#45;&gt;AppModule -->
<g id="edge10" class="edge">
<title>SearchEmployeeModule&#45;&gt;AppModule</title>
<path fill="none" stroke="black" d="M371,-85.07C371,-103.36 371,-128.8 371,-128.8 371,-128.8 778.96,-128.8 778.96,-128.8"/>
<polygon fill="black" stroke="black" points="778.96,-132.3 788.96,-128.8 778.96,-125.3 778.96,-132.3"/>
</g>
</g>
</svg>
