<?xml version="1.0" encoding="UTF-8" standalone="no"?>
<!DOCTYPE svg PUBLIC "-//W3C//DTD SVG 1.1//EN"
 "http://www.w3.org/Graphics/SVG/1.1/DTD/svg11.dtd">
<!-- Generated by graphviz version 5.0.0 (20220707.1540)
 -->
<!-- Title: dependencies Pages: 1 -->
<svg width="1142pt" height="247pt"
 viewBox="0.00 0.00 1142.00 246.80" xmlns="http://www.w3.org/2000/svg" xmlns:xlink="http://www.w3.org/1999/xlink">
<g id="graph0" class="graph" transform="scale(1 1) rotate(0) translate(4 242.8)">
<title>dependencies</title>
<polygon fill="white" stroke="transparent" points="-4,4 -4,-242.8 1138,-242.8 1138,4 -4,4"/>
<text text-anchor="middle" x="567" y="-8.2" font-family="sans-serif" font-size="14.00">dependencies</text>
<g id="clust1" class="cluster">
<title>cluster_SearchCompanyModule</title>
<polygon fill="none" stroke="black" stroke-dasharray="1,5" points="8,-32.8 8,-230.8 1126,-230.8 1126,-32.8 8,-32.8"/>
</g>
<g id="clust7" class="cluster">
<title>cluster_SearchCompanyModule_imports</title>
<polygon fill="none" stroke="black" points="1004,-40.8 1004,-92.8 1118,-92.8 1118,-40.8 1004,-40.8"/>
</g>
<g id="clust2" class="cluster">
<title>cluster_SearchCompanyModule_declarations</title>
<polygon fill="none" stroke="black" points="196,-40.8 196,-92.8 996,-92.8 996,-40.8 196,-40.8"/>
</g>
<g id="clust10" class="cluster">
<title>cluster_SearchCompanyModule_providers</title>
<polygon fill="none" stroke="black" points="16,-40.8 16,-92.8 188,-92.8 188,-40.8 16,-40.8"/>
</g>
<g id="clust8" class="cluster">
<title>cluster_SearchCompanyModule_exports</title>
<polygon fill="none" stroke="black" points="492,-170.8 492,-222.8 686,-222.8 686,-170.8 492,-170.8"/>
</g>
<!-- CompanyTerminationComponent -->
<g id="node1" class="node">
<title>CompanyTerminationComponent</title>
<polygon fill="#ffffb3" stroke="black" points="988.47,-84.8 783.53,-84.8 783.53,-48.8 988.47,-48.8 988.47,-84.8"/>
<text text-anchor="middle" x="886" y="-62.6" font-family="Times,serif" font-size="14.00">CompanyTerminationComponent</text>
</g>
<!-- SearchCompanyModule -->
<g id="node5" class="node">
<title>SearchCompanyModule</title>
<polygon fill="#8dd3c7" stroke="black" points="665.08,-149.8 662.08,-153.8 641.08,-153.8 638.08,-149.8 512.92,-149.8 512.92,-113.8 665.08,-113.8 665.08,-149.8"/>
<text text-anchor="middle" x="589" y="-127.6" font-family="Times,serif" font-size="14.00">SearchCompanyModule</text>
</g>
<!-- CompanyTerminationComponent&#45;&gt;SearchCompanyModule -->
<g id="edge1" class="edge">
<title>CompanyTerminationComponent&#45;&gt;SearchCompanyModule</title>
<path fill="none" stroke="black" d="M886,-84.82C886,-102.17 886,-125.8 886,-125.8 886,-125.8 675.1,-125.8 675.1,-125.8"/>
<polygon fill="black" stroke="black" points="675.1,-122.3 665.1,-125.8 675.1,-129.3 675.1,-122.3"/>
</g>
<!-- EditCompanyComponent -->
<g id="node2" class="node">
<title>EditCompanyComponent</title>
<polygon fill="#ffffb3" stroke="black" points="765.6,-84.8 606.4,-84.8 606.4,-48.8 765.6,-48.8 765.6,-84.8"/>
<text text-anchor="middle" x="686" y="-62.6" font-family="Times,serif" font-size="14.00">EditCompanyComponent</text>
</g>
<!-- EditCompanyComponent&#45;&gt;SearchCompanyModule -->
<g id="edge2" class="edge">
<title>EditCompanyComponent&#45;&gt;SearchCompanyModule</title>
<path fill="none" stroke="black" d="M635.74,-84.91C635.74,-84.91 635.74,-103.79 635.74,-103.79"/>
<polygon fill="black" stroke="black" points="632.24,-103.79 635.74,-113.79 639.24,-103.79 632.24,-103.79"/>
</g>
<!-- FullDetailCompanyComponent -->
<g id="node3" class="node">
<title>FullDetailCompanyComponent</title>
<polygon fill="#ffffb3" stroke="black" points="588.05,-84.8 395.95,-84.8 395.95,-48.8 588.05,-48.8 588.05,-84.8"/>
<text text-anchor="middle" x="492" y="-62.6" font-family="Times,serif" font-size="14.00">FullDetailCompanyComponent</text>
</g>
<!-- FullDetailCompanyComponent&#45;&gt;SearchCompanyModule -->
<g id="edge3" class="edge">
<title>FullDetailCompanyComponent&#45;&gt;SearchCompanyModule</title>
<path fill="none" stroke="black" d="M550.62,-84.91C550.62,-84.91 550.62,-103.79 550.62,-103.79"/>
<polygon fill="black" stroke="black" points="547.12,-103.79 550.62,-113.79 554.12,-103.79 547.12,-103.79"/>
</g>
<!-- SearchCompanyComponent -->
<g id="node4" class="node">
<title>SearchCompanyComponent</title>
<polygon fill="#ffffb3" stroke="black" points="377.86,-84.8 204.14,-84.8 204.14,-48.8 377.86,-48.8 377.86,-84.8"/>
<text text-anchor="middle" x="291" y="-62.6" font-family="Times,serif" font-size="14.00">SearchCompanyComponent</text>
</g>
<!-- SearchCompanyComponent&#45;&gt;SearchCompanyModule -->
<g id="edge4" class="edge">
<title>SearchCompanyComponent&#45;&gt;SearchCompanyModule</title>
<path fill="none" stroke="black" d="M291,-84.82C291,-102.17 291,-125.8 291,-125.8 291,-125.8 502.64,-125.8 502.64,-125.8"/>
<polygon fill="black" stroke="black" points="502.64,-129.3 512.64,-125.8 502.64,-122.3 502.64,-129.3"/>
</g>
<!-- SearchCompanyComponent  -->
<g id="node7" class="node">
<title>SearchCompanyComponent </title>
<polygon fill="#fb8072" stroke="black" points="677.86,-214.8 500.14,-214.8 500.14,-178.8 677.86,-178.8 677.86,-214.8"/>
<text text-anchor="middle" x="589" y="-192.6" font-family="Times,serif" font-size="14.00">SearchCompanyComponent </text>
</g>
<!-- SearchCompanyModule&#45;&gt;SearchCompanyComponent  -->
<g id="edge6" class="edge">
<title>SearchCompanyModule&#45;&gt;SearchCompanyComponent </title>
<path fill="none" stroke="black" stroke-dasharray="5,2" d="M589,-149.91C589,-149.91 589,-168.79 589,-168.79"/>
<polygon fill="black" stroke="black" points="585.5,-168.79 589,-178.79 592.5,-168.79 585.5,-168.79"/>
</g>
<!-- SharedModule -->
<g id="node6" class="node">
<title>SharedModule</title>
<polygon fill="#8dd3c7" stroke="black" points="1110.43,-84.8 1107.43,-88.8 1086.43,-88.8 1083.43,-84.8 1011.57,-84.8 1011.57,-48.8 1110.43,-48.8 1110.43,-84.8"/>
<text text-anchor="middle" x="1061" y="-62.6" font-family="Times,serif" font-size="14.00">SharedModule</text>
</g>
<!-- SharedModule&#45;&gt;SearchCompanyModule -->
<g id="edge5" class="edge">
<title>SharedModule&#45;&gt;SearchCompanyModule</title>
<path fill="none" stroke="black" d="M1061,-85.08C1061,-106.12 1061,-137.8 1061,-137.8 1061,-137.8 675.1,-137.8 675.1,-137.8"/>
<polygon fill="black" stroke="black" points="675.1,-134.3 665.1,-137.8 675.1,-141.3 675.1,-134.3"/>
</g>
<!-- CompanyService -->
<g id="node8" class="node">
<title>CompanyService</title>
<ellipse fill="#fdb462" stroke="black" cx="102" cy="-66.8" rx="77.59" ry="18"/>
<text text-anchor="middle" x="102" y="-62.6" font-family="Times,serif" font-size="14.00">CompanyService</text>
</g>
<!-- CompanyService&#45;&gt;SearchCompanyModule -->
<g id="edge7" class="edge">
<title>CompanyService&#45;&gt;SearchCompanyModule</title>
<path fill="none" stroke="black" d="M102,-85.08C102,-106.12 102,-137.8 102,-137.8 102,-137.8 502.91,-137.8 502.91,-137.8"/>
<polygon fill="black" stroke="black" points="502.91,-141.3 512.91,-137.8 502.91,-134.3 502.91,-141.3"/>
</g>
</g>
</svg>
