<?xml version="1.0" encoding="UTF-8" standalone="no"?>
<!DOCTYPE svg PUBLIC "-//W3C//DTD SVG 1.1//EN"
 "http://www.w3.org/Graphics/SVG/1.1/DTD/svg11.dtd">
<!-- Generated by graphviz version 5.0.0 (20220707.1540)
 -->
<!-- Title: dependencies Pages: 1 -->
<svg width="518pt" height="247pt"
 viewBox="0.00 0.00 518.00 246.80" xmlns="http://www.w3.org/2000/svg" xmlns:xlink="http://www.w3.org/1999/xlink">
<g id="graph0" class="graph" transform="scale(1 1) rotate(0) translate(4 242.8)">
<title>dependencies</title>
<polygon fill="white" stroke="transparent" points="-4,4 -4,-242.8 514,-242.8 514,4 -4,4"/>
<text text-anchor="middle" x="255" y="-8.2" font-family="sans-serif" font-size="14.00">dependencies</text>
<g id="clust1" class="cluster">
<title>cluster_EditCompanyCompanyModule</title>
<polygon fill="none" stroke="black" stroke-dasharray="1,5" points="8,-32.8 8,-230.8 502,-230.8 502,-32.8 8,-32.8"/>
</g>
<g id="clust4" class="cluster">
<title>cluster_EditCompanyCompanyModule_imports</title>
<polygon fill="none" stroke="black" points="380,-40.8 380,-92.8 494,-92.8 494,-40.8 380,-40.8"/>
</g>
<g id="clust2" class="cluster">
<title>cluster_EditCompanyCompanyModule_declarations</title>
<polygon fill="none" stroke="black" points="196,-40.8 196,-92.8 372,-92.8 372,-40.8 196,-40.8"/>
</g>
<g id="clust7" class="cluster">
<title>cluster_EditCompanyCompanyModule_providers</title>
<polygon fill="none" stroke="black" points="16,-40.8 16,-92.8 188,-92.8 188,-40.8 16,-40.8"/>
</g>
<g id="clust5" class="cluster">
<title>cluster_EditCompanyCompanyModule_exports</title>
<polygon fill="none" stroke="black" points="195,-170.8 195,-222.8 373,-222.8 373,-170.8 195,-170.8"/>
</g>
<!-- EditCompanyComponent -->
<g id="node1" class="node">
<title>EditCompanyComponent</title>
<polygon fill="#ffffb3" stroke="black" points="363.6,-84.8 204.4,-84.8 204.4,-48.8 363.6,-48.8 363.6,-84.8"/>
<text text-anchor="middle" x="284" y="-62.6" font-family="Times,serif" font-size="14.00">EditCompanyComponent</text>
</g>
<!-- EditCompanyCompanyModule -->
<g id="node2" class="node">
<title>EditCompanyCompanyModule</title>
<polygon fill="#8dd3c7" stroke="black" points="379.77,-149.8 376.77,-153.8 355.77,-153.8 352.77,-149.8 188.23,-149.8 188.23,-113.8 379.77,-113.8 379.77,-149.8"/>
<text text-anchor="middle" x="284" y="-127.6" font-family="Times,serif" font-size="14.00">EditCompanyCompanyModule</text>
</g>
<!-- EditCompanyComponent&#45;&gt;EditCompanyCompanyModule -->
<g id="edge1" class="edge">
<title>EditCompanyComponent&#45;&gt;EditCompanyCompanyModule</title>
<path fill="none" stroke="black" d="M284,-84.91C284,-84.91 284,-103.79 284,-103.79"/>
<polygon fill="black" stroke="black" points="280.5,-103.79 284,-113.79 287.5,-103.79 280.5,-103.79"/>
</g>
<!-- EditCompanyComponent  -->
<g id="node4" class="node">
<title>EditCompanyComponent </title>
<polygon fill="#fb8072" stroke="black" points="365.1,-214.8 202.9,-214.8 202.9,-178.8 365.1,-178.8 365.1,-214.8"/>
<text text-anchor="middle" x="284" y="-192.6" font-family="Times,serif" font-size="14.00">EditCompanyComponent </text>
</g>
<!-- EditCompanyCompanyModule&#45;&gt;EditCompanyComponent  -->
<g id="edge3" class="edge">
<title>EditCompanyCompanyModule&#45;&gt;EditCompanyComponent </title>
<path fill="none" stroke="black" stroke-dasharray="5,2" d="M284,-149.91C284,-149.91 284,-168.79 284,-168.79"/>
<polygon fill="black" stroke="black" points="280.5,-168.79 284,-178.79 287.5,-168.79 280.5,-168.79"/>
</g>
<!-- SharedModule -->
<g id="node3" class="node">
<title>SharedModule</title>
<polygon fill="#8dd3c7" stroke="black" points="486.43,-84.8 483.43,-88.8 462.43,-88.8 459.43,-84.8 387.57,-84.8 387.57,-48.8 486.43,-48.8 486.43,-84.8"/>
<text text-anchor="middle" x="437" y="-62.6" font-family="Times,serif" font-size="14.00">SharedModule</text>
</g>
<!-- SharedModule&#45;&gt;EditCompanyCompanyModule -->
<g id="edge2" class="edge">
<title>SharedModule&#45;&gt;EditCompanyCompanyModule</title>
<path fill="none" stroke="black" d="M387.52,-66.8C378.42,-66.8 371.72,-66.8 371.72,-66.8 371.72,-66.8 371.72,-103.69 371.72,-103.69"/>
<polygon fill="black" stroke="black" points="368.22,-103.69 371.72,-113.69 375.22,-103.69 368.22,-103.69"/>
</g>
<!-- CompanyService -->
<g id="node5" class="node">
<title>CompanyService</title>
<ellipse fill="#fdb462" stroke="black" cx="102" cy="-66.8" rx="77.59" ry="18"/>
<text text-anchor="middle" x="102" y="-62.6" font-family="Times,serif" font-size="14.00">CompanyService</text>
</g>
<!-- CompanyService&#45;&gt;EditCompanyCompanyModule -->
<g id="edge4" class="edge">
<title>CompanyService&#45;&gt;EditCompanyCompanyModule</title>
<path fill="none" stroke="black" d="M179.86,-66.8C189.63,-66.8 196.28,-66.8 196.28,-66.8 196.28,-66.8 196.28,-103.69 196.28,-103.69"/>
<polygon fill="black" stroke="black" points="192.78,-103.69 196.28,-113.69 199.78,-103.69 192.78,-103.69"/>
</g>
</g>
</svg>
