<?xml version="1.0" encoding="UTF-8" standalone="no"?>
<!DOCTYPE svg PUBLIC "-//W3C//DTD SVG 1.1//EN"
 "http://www.w3.org/Graphics/SVG/1.1/DTD/svg11.dtd">
<!-- Generated by graphviz version 5.0.0 (20220707.1540)
 -->
<!-- Title: dependencies Pages: 1 -->
<svg width="721pt" height="247pt"
 viewBox="0.00 0.00 721.00 246.80" xmlns="http://www.w3.org/2000/svg" xmlns:xlink="http://www.w3.org/1999/xlink">
<g id="graph0" class="graph" transform="scale(1 1) rotate(0) translate(4 242.8)">
<title>dependencies</title>
<polygon fill="white" stroke="transparent" points="-4,4 -4,-242.8 717,-242.8 717,4 -4,4"/>
<text text-anchor="middle" x="356.5" y="-8.2" font-family="sans-serif" font-size="14.00">dependencies</text>
<g id="clust1" class="cluster">
<title>cluster_GovernmentPaymentsModule</title>
<polygon fill="none" stroke="black" stroke-dasharray="1,5" points="8,-32.8 8,-230.8 705,-230.8 705,-32.8 8,-32.8"/>
</g>
<g id="clust6" class="cluster">
<title>cluster_GovernmentPaymentsModule_imports</title>
<polygon fill="none" stroke="black" points="583,-40.8 583,-92.8 697,-92.8 697,-40.8 583,-40.8"/>
</g>
<g id="clust7" class="cluster">
<title>cluster_GovernmentPaymentsModule_exports</title>
<polygon fill="none" stroke="black" points="284,-170.8 284,-222.8 510,-222.8 510,-170.8 284,-170.8"/>
</g>
<g id="clust2" class="cluster">
<title>cluster_GovernmentPaymentsModule_declarations</title>
<polygon fill="none" stroke="black" points="16,-40.8 16,-92.8 575,-92.8 575,-40.8 16,-40.8"/>
</g>
<!-- BillReceiptComponent -->
<g id="node1" class="node">
<title>BillReceiptComponent</title>
<polygon fill="#ffffb3" stroke="black" points="566.6,-84.8 421.4,-84.8 421.4,-48.8 566.6,-48.8 566.6,-84.8"/>
<text text-anchor="middle" x="494" y="-62.6" font-family="Times,serif" font-size="14.00">BillReceiptComponent</text>
</g>
<!-- GovernmentPaymentsModule -->
<g id="node4" class="node">
<title>GovernmentPaymentsModule</title>
<polygon fill="#8dd3c7" stroke="black" points="488.97,-149.8 485.97,-153.8 464.97,-153.8 461.97,-149.8 305.03,-149.8 305.03,-113.8 488.97,-113.8 488.97,-149.8"/>
<text text-anchor="middle" x="397" y="-127.6" font-family="Times,serif" font-size="14.00">GovernmentPaymentsModule</text>
</g>
<!-- BillReceiptComponent&#45;&gt;GovernmentPaymentsModule -->
<g id="edge1" class="edge">
<title>BillReceiptComponent&#45;&gt;GovernmentPaymentsModule</title>
<path fill="none" stroke="black" d="M455.22,-84.91C455.22,-84.91 455.22,-103.79 455.22,-103.79"/>
<polygon fill="black" stroke="black" points="451.72,-103.79 455.22,-113.79 458.72,-103.79 451.72,-103.79"/>
</g>
<!-- GovernmentPaymentsComponent -->
<g id="node2" class="node">
<title>GovernmentPaymentsComponent</title>
<polygon fill="#ffffb3" stroke="black" points="403.75,-84.8 198.25,-84.8 198.25,-48.8 403.75,-48.8 403.75,-84.8"/>
<text text-anchor="middle" x="301" y="-62.6" font-family="Times,serif" font-size="14.00">GovernmentPaymentsComponent</text>
</g>
<!-- GovernmentPaymentsComponent&#45;&gt;GovernmentPaymentsModule -->
<g id="edge2" class="edge">
<title>GovernmentPaymentsComponent&#45;&gt;GovernmentPaymentsModule</title>
<path fill="none" stroke="black" d="M354.44,-84.91C354.44,-84.91 354.44,-103.79 354.44,-103.79"/>
<polygon fill="black" stroke="black" points="350.94,-103.79 354.44,-113.79 357.94,-103.79 350.94,-103.79"/>
</g>
<!-- NewPaymentComponent -->
<g id="node3" class="node">
<title>NewPaymentComponent</title>
<polygon fill="#ffffb3" stroke="black" points="180.26,-84.8 23.74,-84.8 23.74,-48.8 180.26,-48.8 180.26,-84.8"/>
<text text-anchor="middle" x="102" y="-62.6" font-family="Times,serif" font-size="14.00">NewPaymentComponent</text>
</g>
<!-- NewPaymentComponent&#45;&gt;GovernmentPaymentsModule -->
<g id="edge3" class="edge">
<title>NewPaymentComponent&#45;&gt;GovernmentPaymentsModule</title>
<path fill="none" stroke="black" d="M102,-84.91C102,-104.14 102,-131.8 102,-131.8 102,-131.8 294.87,-131.8 294.87,-131.8"/>
<polygon fill="black" stroke="black" points="294.87,-135.3 304.87,-131.8 294.87,-128.3 294.87,-135.3"/>
</g>
<!-- GovernmentPaymentsComponent  -->
<g id="node6" class="node">
<title>GovernmentPaymentsComponent </title>
<polygon fill="#fb8072" stroke="black" points="501.75,-214.8 292.25,-214.8 292.25,-178.8 501.75,-178.8 501.75,-214.8"/>
<text text-anchor="middle" x="397" y="-192.6" font-family="Times,serif" font-size="14.00">GovernmentPaymentsComponent </text>
</g>
<!-- GovernmentPaymentsModule&#45;&gt;GovernmentPaymentsComponent  -->
<g id="edge5" class="edge">
<title>GovernmentPaymentsModule&#45;&gt;GovernmentPaymentsComponent </title>
<path fill="none" stroke="black" stroke-dasharray="5,2" d="M397,-149.91C397,-149.91 397,-168.79 397,-168.79"/>
<polygon fill="black" stroke="black" points="393.5,-168.79 397,-178.79 400.5,-168.79 393.5,-168.79"/>
</g>
<!-- SharedModule -->
<g id="node5" class="node">
<title>SharedModule</title>
<polygon fill="#8dd3c7" stroke="black" points="689.43,-84.8 686.43,-88.8 665.43,-88.8 662.43,-84.8 590.57,-84.8 590.57,-48.8 689.43,-48.8 689.43,-84.8"/>
<text text-anchor="middle" x="640" y="-62.6" font-family="Times,serif" font-size="14.00">SharedModule</text>
</g>
<!-- SharedModule&#45;&gt;GovernmentPaymentsModule -->
<g id="edge4" class="edge">
<title>SharedModule&#45;&gt;GovernmentPaymentsModule</title>
<path fill="none" stroke="black" d="M640,-84.91C640,-104.14 640,-131.8 640,-131.8 640,-131.8 499.21,-131.8 499.21,-131.8"/>
<polygon fill="black" stroke="black" points="499.21,-128.3 489.21,-131.8 499.21,-135.3 499.21,-128.3"/>
</g>
</g>
</svg>
