<?xml version="1.0" encoding="UTF-8" standalone="no"?>
<!DOCTYPE svg PUBLIC "-//W3C//DTD SVG 1.1//EN"
 "http://www.w3.org/Graphics/SVG/1.1/DTD/svg11.dtd">
<!-- Generated by graphviz version 5.0.0 (20220707.1540)
 -->
<!-- Title: dependencies Pages: 1 -->
<svg width="692pt" height="247pt"
 viewBox="0.00 0.00 692.00 246.80" xmlns="http://www.w3.org/2000/svg" xmlns:xlink="http://www.w3.org/1999/xlink">
<g id="graph0" class="graph" transform="scale(1 1) rotate(0) translate(4 242.8)">
<title>dependencies</title>
<polygon fill="white" stroke="transparent" points="-4,4 -4,-242.8 688,-242.8 688,4 -4,4"/>
<text text-anchor="middle" x="342" y="-8.2" font-family="sans-serif" font-size="14.00">dependencies</text>
<g id="clust1" class="cluster">
<title>cluster_LegalPaymentsModule</title>
<polygon fill="none" stroke="black" stroke-dasharray="1,5" points="8,-32.8 8,-230.8 676,-230.8 676,-32.8 8,-32.8"/>
</g>
<g id="clust7" class="cluster">
<title>cluster_LegalPaymentsModule_exports</title>
<polygon fill="none" stroke="black" points="228,-170.8 228,-222.8 416,-222.8 416,-170.8 228,-170.8"/>
</g>
<g id="clust2" class="cluster">
<title>cluster_LegalPaymentsModule_declarations</title>
<polygon fill="none" stroke="black" points="138,-40.8 138,-92.8 668,-92.8 668,-40.8 138,-40.8"/>
</g>
<g id="clust6" class="cluster">
<title>cluster_LegalPaymentsModule_imports</title>
<polygon fill="none" stroke="black" points="16,-40.8 16,-92.8 130,-92.8 130,-40.8 16,-40.8"/>
</g>
<!-- BillReceiptComponent -->
<g id="node1" class="node">
<title>BillReceiptComponent</title>
<polygon fill="#ffffb3" stroke="black" points="659.6,-84.8 514.4,-84.8 514.4,-48.8 659.6,-48.8 659.6,-84.8"/>
<text text-anchor="middle" x="587" y="-62.6" font-family="Times,serif" font-size="14.00">BillReceiptComponent</text>
</g>
<!-- LegalPaymentsModule -->
<g id="node4" class="node">
<title>LegalPaymentsModule</title>
<polygon fill="#8dd3c7" stroke="black" points="394.86,-149.8 391.86,-153.8 370.86,-153.8 367.86,-149.8 249.14,-149.8 249.14,-113.8 394.86,-113.8 394.86,-149.8"/>
<text text-anchor="middle" x="322" y="-127.6" font-family="Times,serif" font-size="14.00">LegalPaymentsModule</text>
</g>
<!-- BillReceiptComponent&#45;&gt;LegalPaymentsModule -->
<g id="edge1" class="edge">
<title>BillReceiptComponent&#45;&gt;LegalPaymentsModule</title>
<path fill="none" stroke="black" d="M587,-84.91C587,-104.14 587,-131.8 587,-131.8 587,-131.8 405.11,-131.8 405.11,-131.8"/>
<polygon fill="black" stroke="black" points="405.11,-128.3 395.11,-131.8 405.11,-135.3 405.11,-128.3"/>
</g>
<!-- DeleteRegisterComponent -->
<g id="node2" class="node">
<title>DeleteRegisterComponent</title>
<polygon fill="#ffffb3" stroke="black" points="496.02,-84.8 331.98,-84.8 331.98,-48.8 496.02,-48.8 496.02,-84.8"/>
<text text-anchor="middle" x="414" y="-62.6" font-family="Times,serif" font-size="14.00">DeleteRegisterComponent</text>
</g>
<!-- DeleteRegisterComponent&#45;&gt;LegalPaymentsModule -->
<g id="edge2" class="edge">
<title>DeleteRegisterComponent&#45;&gt;LegalPaymentsModule</title>
<path fill="none" stroke="black" d="M363.34,-84.91C363.34,-84.91 363.34,-103.79 363.34,-103.79"/>
<polygon fill="black" stroke="black" points="359.84,-103.79 363.34,-113.79 366.84,-103.79 359.84,-103.79"/>
</g>
<!-- LegalPaymentsComponent -->
<g id="node3" class="node">
<title>LegalPaymentsComponent</title>
<polygon fill="#ffffb3" stroke="black" points="313.64,-84.8 146.36,-84.8 146.36,-48.8 313.64,-48.8 313.64,-84.8"/>
<text text-anchor="middle" x="230" y="-62.6" font-family="Times,serif" font-size="14.00">LegalPaymentsComponent</text>
</g>
<!-- LegalPaymentsComponent&#45;&gt;LegalPaymentsModule -->
<g id="edge3" class="edge">
<title>LegalPaymentsComponent&#45;&gt;LegalPaymentsModule</title>
<path fill="none" stroke="black" d="M281.44,-84.91C281.44,-84.91 281.44,-103.79 281.44,-103.79"/>
<polygon fill="black" stroke="black" points="277.94,-103.79 281.44,-113.79 284.94,-103.79 277.94,-103.79"/>
</g>
<!-- LegalPaymentsComponent  -->
<g id="node6" class="node">
<title>LegalPaymentsComponent </title>
<polygon fill="#fb8072" stroke="black" points="407.64,-214.8 236.36,-214.8 236.36,-178.8 407.64,-178.8 407.64,-214.8"/>
<text text-anchor="middle" x="322" y="-192.6" font-family="Times,serif" font-size="14.00">LegalPaymentsComponent </text>
</g>
<!-- LegalPaymentsModule&#45;&gt;LegalPaymentsComponent  -->
<g id="edge5" class="edge">
<title>LegalPaymentsModule&#45;&gt;LegalPaymentsComponent </title>
<path fill="none" stroke="black" stroke-dasharray="5,2" d="M322,-149.91C322,-149.91 322,-168.79 322,-168.79"/>
<polygon fill="black" stroke="black" points="318.5,-168.79 322,-178.79 325.5,-168.79 318.5,-168.79"/>
</g>
<!-- SharedModule -->
<g id="node5" class="node">
<title>SharedModule</title>
<polygon fill="#8dd3c7" stroke="black" points="122.43,-84.8 119.43,-88.8 98.43,-88.8 95.43,-84.8 23.57,-84.8 23.57,-48.8 122.43,-48.8 122.43,-84.8"/>
<text text-anchor="middle" x="73" y="-62.6" font-family="Times,serif" font-size="14.00">SharedModule</text>
</g>
<!-- SharedModule&#45;&gt;LegalPaymentsModule -->
<g id="edge4" class="edge">
<title>SharedModule&#45;&gt;LegalPaymentsModule</title>
<path fill="none" stroke="black" d="M73,-84.91C73,-104.14 73,-131.8 73,-131.8 73,-131.8 238.97,-131.8 238.97,-131.8"/>
<polygon fill="black" stroke="black" points="238.97,-135.3 248.97,-131.8 238.97,-128.3 238.97,-135.3"/>
</g>
</g>
</svg>
